<?xml version="1.0" encoding="utf-8"?>
<!-- Generator: Adobe Illustrator 15.0.0, SVG Export Plug-In . SVG Version: 6.00 Build 0)  -->
<!DOCTYPE svg PUBLIC "-//W3C//DTD SVG 1.1//EN" "http://www.w3.org/Graphics/SVG/1.1/DTD/svg11.dtd">
<svg version="1.1" id="Calque_1" xmlns="http://www.w3.org/2000/svg" xmlns:xlink="http://www.w3.org/1999/xlink" x="0px" y="0px"
	 width="156px" height="13px" viewBox="0 0 156 13" enable-background="new 0 0 156 13" xml:space="preserve">
<path fill="#EEEBE8" d="M9,0H4C1.8,0,0,1.8,0,4v5c0,2.2,1.8,4,4,4h5c2.2,0,4-1.8,4-4V4C13,1.8,11.2,0,9,0z"/>
<path fill="#EEEBE8" d="M22,0h-5c-2.2,0-4,1.8-4,4v5c0,2.2,1.8,4,4,4h5c2.2,0,4-1.8,4-4V4C26,1.8,24.2,0,22,0z"/>
<path opacity="0.25" fill="#2D2D2D" enable-background="new    " d="M35,0h-5c-2.2,0-4,1.8-4,4v5c0,2.2,1.8,4,4,4h5c2.2,0,4-1.8,4-4
	V4C39,1.8,37.2,0,35,0z"/>
<path opacity="0.25" fill="#2D2D2D" enable-background="new    " d="M87,0h-5c-2.2,0-4,1.8-4,4v5c0,2.2,1.8,4,4,4h5c2.2,0,4-1.8,4-4
	V4C91,1.8,89.2,0,87,0z"/>
<path fill="#EEEBE8" d="M48,0h-5c-2.2,0-4,1.8-4,4v5c0,2.2,1.8,4,4,4h5c2.2,0,4-1.8,4-4V4C52,1.8,50.2,0,48,0z"/>
<path fill="#EEEBE8" d="M113,0h-5c-2.2,0-4,1.8-4,4v5c0,2.2,1.8,4,4,4h5c2.2,0,4-1.8,4-4V4C117,1.8,115.2,0,113,0z"/>
<path fill="#EEEBE8" d="M126,0h-5c-2.2,0-4,1.8-4,4v5c0,2.2,1.8,4,4,4h5c2.2,0,4-1.8,4-4V4C130,1.8,128.2,0,126,0z"/>
<path fill="#EEEBE8" d="M152,0h-5c-2.2,0-4,1.8-4,4v5c0,2.2,1.8,4,4,4h5c2.2,0,4-1.8,4-4V4C156,1.8,154.2,0,152,0z"/>
<g>
	<path fill="#DFDFDF" d="M56,12.5c-1.93,0-3.5-1.57-3.5-3.5V4c0-1.93,1.57-3.5,3.5-3.5h5c1.93,0,3.5,1.57,3.5,3.5v5
		c0,1.93-1.57,3.5-3.5,3.5H56z"/>
	<path fill="#C0C0C0" d="M61,1c1.654,0,3,1.346,3,3v5c0,1.654-1.346,3-3,3h-5c-1.654,0-3-1.346-3-3V4c0-1.654,1.346-3,3-3H61 M61,0
		h-5c-2.2,0-4,1.8-4,4v5c0,2.2,1.8,4,4,4h5c2.2,0,4-1.8,4-4V4C65,1.8,63.2,0,61,0L61,0z"/>
</g>
<g>
	<path fill="#DFDFDF" d="M69,12.5c-1.93,0-3.5-1.57-3.5-3.5V4c0-1.93,1.57-3.5,3.5-3.5h5c1.93,0,3.5,1.57,3.5,3.5v5
		c0,1.93-1.57,3.5-3.5,3.5H69z"/>
	<path fill="#C0C0C0" d="M74,1c1.654,0,3,1.346,3,3v5c0,1.654-1.346,3-3,3h-5c-1.654,0-3-1.346-3-3V4c0-1.654,1.346-3,3-3H74 M74,0
		h-5c-2.2,0-4,1.8-4,4v5c0,2.2,1.8,4,4,4h5c2.2,0,4-1.8,4-4V4C78,1.8,76.2,0,74,0L74,0z"/>
</g>
<g>
	<path fill="#DFDFDF" d="M95,12.5c-1.93,0-3.5-1.57-3.5-3.5V4c0-1.93,1.57-3.5,3.5-3.5h5c1.93,0,3.5,1.57,3.5,3.5v5
		c0,1.93-1.57,3.5-3.5,3.5H95z"/>
	<path fill="#C0C0C0" d="M100,1c1.654,0,3,1.346,3,3v5c0,1.654-1.346,3-3,3h-5c-1.654,0-3-1.346-3-3V4c0-1.654,1.346-3,3-3H100
		 M100,0h-5c-2.2,0-4,1.8-4,4v5c0,2.2,1.8,4,4,4h5c2.2,0,4-1.8,4-4V4C104,1.8,102.2,0,100,0L100,0z"/>
</g>
<g id="check">
	<polygon fill="#808090" points="4.863,8.537 2.715,6.343 2,7.073 4.863,10 11,3.732 10.285,3 	"/>
</g>
<g id="check_1_">
	<polygon fill="#808090" points="17.863,8.537 15.715,6.343 15,7.073 17.863,10 24,3.732 23.285,3 	"/>
</g>
<g id="check_6_">
	<polygon fill="#808090" points="108.863,8.537 106.715,6.343 106,7.073 108.863,10 115,3.732 114.285,3 	"/>
</g>
<g id="check_7_">
	<polygon fill="#808090" points="121.863,8.537 119.715,6.343 119,7.073 121.863,10 128,3.732 127.285,3 	"/>
</g>
<g id="check_8_">
	<polygon fill="#808090" points="147.863,8.537 145.715,6.343 145,7.073 147.863,10 154,3.732 153.285,3 	"/>
</g>
<g id="check_2_">
	<polygon fill="#FFFFFF" points="30.863,8.537 28.715,6.343 28,7.073 30.863,10 37,3.732 36.285,3 	"/>
</g>
<path opacity="0.25" fill="#2D2D2D" enable-background="new    " d="M139,0h-5c-2.2,0-4,1.8-4,4v5c0,2.2,1.8,4,4,4h5
	c2.2,0,4-1.8,4-4V4C143,1.8,141.2,0,139,0z"/>
<g id="check_5_">
	<polygon fill="#FFFFFF" points="134.863,8.537 132.715,6.343 132,7.073 134.863,10 141,3.732 140.285,3 	"/>
</g>
<g id="check_3_">
	<polygon fill="#808090" points="43.863,8.537 41.715,6.343 41,7.073 43.863,10 50,3.732 49.285,3 	"/>
</g>
</svg>
