<?xml version="1.0" encoding="utf-8"?>
<!-- Generator: Adobe Illustrator 15.0.0, SVG Export Plug-In . SVG Version: 6.00 Build 0)  -->
<!DOCTYPE svg PUBLIC "-//W3C//DTD SVG 1.1//EN" "http://www.w3.org/Graphics/SVG/1.1/DTD/svg11.dtd">
<svg version="1.1" id="Calque_1" xmlns="http://www.w3.org/2000/svg" xmlns:xlink="http://www.w3.org/1999/xlink" x="0px" y="0px"
	 width="92px" height="56px" viewBox="0 0 92 56" enable-background="new 0 0 92 56" xml:space="preserve">
<g>
	<g>
		<path fill="#FFFBFF" d="M25.927,12.167l8.247,23.288l8.202-23.288h8.688v32.108h-6.637v-8.777l0.661-15.149l-8.667,23.927h-4.542
			L23.236,20.37l0.661,15.128v8.777h-6.615V12.167H25.927z"/>
	</g>
	<g>
		<path fill="#FFFBFF" d="M74.718,44.275H55.512v-1.191l10.518-12.129c1-1.145,1.859-2.212,2.58-3.198
			c0.72-0.984,1.315-1.907,1.787-2.767c0.469-0.859,0.818-1.672,1.047-2.437c0.229-0.765,0.342-1.499,0.342-2.206
			c0-1.132-0.166-2.157-0.498-3.077c-0.331-0.918-0.826-1.701-1.487-2.348c-0.662-0.646-1.482-1.143-2.459-1.489
			c-0.977-0.345-2.106-0.518-3.385-0.518c-1.147,0-2.213,0.209-3.198,0.627c-0.984,0.418-1.838,1-2.559,1.741
			c-0.72,0.743-1.281,1.621-1.686,2.635c-0.404,1.016-0.606,2.117-0.606,3.308h-1.192c0-1.293,0.224-2.517,0.672-3.671
			c0.449-1.154,1.081-2.165,1.897-3.032c0.815-0.867,1.79-1.551,2.921-2.051c1.132-0.501,2.382-0.75,3.749-0.75
			c1.382,0,2.628,0.183,3.737,0.55c1.111,0.369,2.058,0.916,2.846,1.643c0.785,0.728,1.392,1.627,1.818,2.701
			c0.426,1.074,0.641,2.316,0.641,3.728c0,0.999-0.191,2-0.574,2.998c-0.382,1-0.886,2.001-1.51,3c-0.625,1-1.335,1.994-2.129,2.978
			c-0.793,0.984-1.596,1.956-2.403,2.91l-9.304,10.852h17.642V44.275z"/>
	</g>
</g>
</svg>
