<?xml version="1.0" encoding="utf-8"?>
<!-- Generator: Adobe Illustrator 15.0.0, SVG Export Plug-In . SVG Version: 6.00 Build 0)  -->
<!DOCTYPE svg PUBLIC "-//W3C//DTD SVG 1.1//EN" "http://www.w3.org/Graphics/SVG/1.1/DTD/svg11.dtd">
<svg version="1.1" id="Calque_1" xmlns="http://www.w3.org/2000/svg" xmlns:xlink="http://www.w3.org/1999/xlink" x="0px" y="0px"
	 width="205px" height="205px" viewBox="0 0 205 205" enable-background="new 0 0 205 205" xml:space="preserve">
<g>
	<g>
		<path fill="#FFFBFF" d="M38.509,52.029l26.29,74.236l26.146-74.236h27.698v102.353H97.484v-27.98l2.107-48.292l-27.628,76.272
			h-14.48L29.932,78.178l2.107,48.224v27.98H10.953V52.029H38.509z"/>
	</g>
	<g>
		<path fill="#FFFBFF" d="M194.047,154.382H132.82v-3.797l33.531-38.666c3.187-3.647,5.927-7.05,8.222-10.191
			c2.296-3.138,4.194-6.081,5.698-8.823c1.493-2.74,2.608-5.33,3.337-7.768c0.729-2.439,1.091-4.778,1.091-7.031
			c0-3.609-0.531-6.876-1.588-9.808c-1.055-2.927-2.635-5.421-4.741-7.485c-2.111-2.062-4.728-3.643-7.841-4.746
			c-3.11-1.099-6.713-1.65-10.789-1.65c-3.657,0-7.055,0.667-10.194,2.001c-3.14,1.333-5.858,3.187-8.156,5.551
			c-2.296,2.366-4.086,5.167-5.375,8.399c-1.288,3.238-1.933,6.75-1.933,10.544h-3.802c0-4.123,0.715-8.024,2.143-11.704
			c1.434-3.68,3.447-6.9,6.048-9.665c2.601-2.765,5.706-4.943,9.313-6.538c3.608-1.596,7.592-2.389,11.951-2.389
			c4.404,0,8.378,0.583,11.914,1.754c3.542,1.175,6.558,2.918,9.071,5.239c2.504,2.32,4.437,5.188,5.796,8.609
			c1.356,3.425,2.043,7.383,2.043,11.884c0,3.186-0.61,6.374-1.83,9.558c-1.218,3.189-2.824,6.377-4.814,9.562
			c-1.993,3.189-4.255,6.353-6.787,9.491c-2.526,3.14-5.085,6.234-7.662,9.277l-29.657,34.593h56.238V154.382z"/>
	</g>
</g>
</svg>
