<?xml version="1.0" encoding="utf-8"?>
<!-- Generator: Adobe Illustrator 15.0.0, SVG Export Plug-In . SVG Version: 6.00 Build 0)  -->
<!DOCTYPE svg PUBLIC "-//W3C//DTD SVG 1.1//EN" "http://www.w3.org/Graphics/SVG/1.1/DTD/svg11.dtd">
<svg version="1.1" id="Calque_1" xmlns="http://www.w3.org/2000/svg" xmlns:xlink="http://www.w3.org/1999/xlink" x="0px" y="0px"
	 width="156px" height="13px" viewBox="0 0 156 13" enable-background="new 0 0 156 13" xml:space="preserve">
<circle fill="#EEEBE8" cx="6.5" cy="6.5" r="6.5"/>
<path fill="#808090" d="M9.5,6.5c0,1.654-1.342,3-3,3s-3-1.346-3-3c0-1.658,1.342-3,3-3S9.5,4.842,9.5,6.5z"/>
<circle fill="#EEEBE8" cx="19.5" cy="6.5" r="6.5"/>
<circle opacity="0.25" fill="#2D2D2D" enable-background="new    " cx="32.5" cy="6.5" r="6.5"/>
<circle fill="#EEEBE8" cx="45.5" cy="6.5" r="6.5"/>
<circle opacity="0.25" fill="#2D2D2D" enable-background="new    " cx="58.5" cy="6.5" r="6.5"/>
<circle opacity="0.25" fill="#2D2D2D" enable-background="new    " cx="71.5" cy="6.5" r="6.5"/>
<circle opacity="0.25" fill="#2D2D2D" enable-background="new    " cx="84.5" cy="6.5" r="6.5"/>
<circle opacity="0.25" fill="#2D2D2D" enable-background="new    " cx="97.5" cy="6.5" r="6.5"/>
<circle fill="#DFDFDF" cx="58.5" cy="6.5" r="5.5"/>
<circle fill="#DFDFDF" cx="71.5" cy="6.5" r="5.5"/>
<circle fill="#DFDFDF" cx="97.5" cy="6.5" r="5.5"/>
<circle fill="#EEEBE8" cx="110.5" cy="6.5" r="6.5"/>
<circle fill="#EEEBE8" cx="123.5" cy="6.5" r="6.5"/>
<circle opacity="0.25" fill="#2D2D2D" enable-background="new    " cx="136.5" cy="6.5" r="6.5"/>
<circle fill="#EEEBE8" cx="149.5" cy="6.5" r="6.5"/>
<path fill="#808090" d="M22.5,6.5c0,1.654-1.342,3-3,3s-3-1.346-3-3c0-1.658,1.342-3,3-3S22.5,4.842,22.5,6.5z"/>
<path fill="#FFFFFF" d="M35.5,6.5c0,1.654-1.342,3-3,3s-3-1.346-3-3c0-1.658,1.342-3,3-3S35.5,4.842,35.5,6.5z"/>
<path fill="#808090" d="M48.5,6.5c0,1.654-1.342,3-3,3s-3-1.346-3-3c0-1.658,1.342-3,3-3S48.5,4.842,48.5,6.5z"/>
<path fill="#808090" d="M113.5,6.5c0,1.654-1.343,3-3,3s-3-1.346-3-3c0-1.658,1.343-3,3-3S113.5,4.842,113.5,6.5z"/>
<path fill="#808090" d="M126.5,6.5c0,1.654-1.343,3-3,3s-3-1.346-3-3c0-1.658,1.343-3,3-3S126.5,4.842,126.5,6.5z"/>
<path fill="#808090" d="M152.5,6.5c0,1.654-1.343,3-3,3s-3-1.346-3-3c0-1.658,1.343-3,3-3S152.5,4.842,152.5,6.5z"/>
</svg>
